HIERARCHY
ROOT Skeleton
{
  OFFSET 0 0 0
  CHANNELS 6 Xposition Yposition Zposition Zrotation Xrotation Yrotation
  JOINT PELVIS
  {
    OFFSET 46.3386 101.608 -182
    CHANNELS 6 Xposition Yposition Zposition Zrotation Xrotation Yrotation
    JOINT SPINE1
    {
      OFFSET 0 7 0
      CHANNELS 6 Xposition Yposition Zposition Zrotation Xrotation Yrotation
      JOINT SPINE2
      {
        OFFSET 0 13 0
        CHANNELS 6 Xposition Yposition Zposition Zrotation Xrotation Yrotation
        JOINT SPINE3
        {
          OFFSET 0 13 0
          CHANNELS 6 Xposition Yposition Zposition Zrotation Xrotation Yrotation
          JOINT NECK
          {
            OFFSET 0 17 0
            CHANNELS 6 Xposition Yposition Zposition Zrotation Xrotation Yrotation
            JOINT NOSE
            {
              OFFSET 0 20 -8
              CHANNELS 6 Xposition Yposition Zposition Zrotation Xrotation Yrotation
              JOINT LEFTEYE
              {
                OFFSET -3 6 4
                CHANNELS 6 Xposition Yposition Zposition Zrotation Xrotation Yrotation
                JOINT LEFTEAR
                {
                  OFFSET -4 -6 9
                  CHANNELS 6 Xposition Yposition Zposition Zrotation Xrotation Yrotation
                  End Site
                  {
                    OFFSET 0 0 0
                  }
                }
              }
              JOINT RIGHTEYE
              {
                OFFSET 3 6 4
                CHANNELS 6 Xposition Yposition Zposition Zrotation Xrotation Yrotation
                JOINT RIGHTEAR
                {
                  OFFSET 4 -6 9
                  CHANNELS 6 Xposition Yposition Zposition Zrotation Xrotation Yrotation
                  End Site
                  {
                    OFFSET 0 0 0
                  }
                }
              }
            }
          }
          JOINT LEFTCLAVICLE
          {
            OFFSET -7 12 5
            CHANNELS 6 Xposition Yposition Zposition Zrotation Xrotation Yrotation
            JOINT LEFTSHOULDER
            {
              OFFSET -11 0 0
              CHANNELS 6 Xposition Yposition Zposition Zrotation Xrotation Yrotation
              JOINT LEFTELBOW
              {
                OFFSET -26 0 0
                CHANNELS 6 Xposition Yposition Zposition Zrotation Xrotation Yrotation
                JOINT LEFTWRIST
                {
                  OFFSET -26 0 0
                  CHANNELS 6 Xposition Yposition Zposition Zrotation Xrotation Yrotation
                  JOINT LEFTHANDTHUMB4
                  {
                    OFFSET -11 -4 -6
                    CHANNELS 6 Xposition Yposition Zposition Zrotation Xrotation Yrotation
                    End Site
                    {
                      OFFSET 0 0 0
                    }
                  }
                  JOINT LEFTHANDINDEX1
                  {
                    OFFSET 11 -4 -6
                    CHANNELS 6 Xposition Yposition Zposition Zrotation Xrotation Yrotation
                    End Site
                    {
                      OFFSET 0 0 0
                    }
                  }
                  JOINT LEFTHANDMIDDLE4
                  {
                    OFFSET 11 0 -3
                    CHANNELS 6 Xposition Yposition Zposition Zrotation Xrotation Yrotation
                    End Site
                    {
                      OFFSET 0 0 0
                    }
                  }
                  JOINT LEFTHANDPINKY1
                  {
                    OFFSET 19 0 -1
                    CHANNELS 6 Xposition Yposition Zposition Zrotation Xrotation Yrotation
                    End Site
                    {
                      OFFSET 0 0 0
                    }
                  }
                }
              }
            }
          }
          JOINT RIGHTCLAVICLE
          {
            OFFSET 7 12 5
            CHANNELS 6 Xposition Yposition Zposition Zrotation Xrotation Yrotation
            JOINT RIGHTSHOULDER
            {
              OFFSET 11 0 0
              CHANNELS 6 Xposition Yposition Zposition Zrotation Xrotation Yrotation
              JOINT RIGHTELBOW
              {
                OFFSET 26 0 0
                CHANNELS 6 Xposition Yposition Zposition Zrotation Xrotation Yrotation
                JOINT RIGHTWRIST
                {
                  OFFSET 26 0 0
                  CHANNELS 6 Xposition Yposition Zposition Zrotation Xrotation Yrotation
                  JOINT RIGHTHANDTHUMB4
                  {
                    OFFSET 11 -4 -6
                    CHANNELS 6 Xposition Yposition Zposition Zrotation Xrotation Yrotation
                    End Site
                    {
                      OFFSET 0 0 0
                    }
                  }
                  JOINT RIGHTHANDINDEX1
                  {
                    OFFSET -11 0 -3
                    CHANNELS 6 Xposition Yposition Zposition Zrotation Xrotation Yrotation
                    End Site
                    {
                      OFFSET 0 0 0
                    }
                  }
                  JOINT RIGHTHANDMIDDLE4
                  {
                    OFFSET -19 0 -1
                    CHANNELS 6 Xposition Yposition Zposition Zrotation Xrotation Yrotation
                    End Site
                    {
                      OFFSET 0 0 0
                    }
                  }
                  JOINT RIGHTHANDPINKY1
                  {
                    OFFSET -11 -1 4
                    CHANNELS 6 Xposition Yposition Zposition Zrotation Xrotation Yrotation
                    End Site
                    {
                      OFFSET 0 0 0
                    }
                  }
                }
              }
            }
          }
        }
      }
    }
    JOINT LEFTHIP
    {
      OFFSET -9 -6 0
      CHANNELS 6 Xposition Yposition Zposition Zrotation Xrotation Yrotation
      JOINT LEFTKNEE
      {
        OFFSET 0 -45 0
        CHANNELS 6 Xposition Yposition Zposition Zrotation Xrotation Yrotation
        JOINT LEFTANKLE
        {
          OFFSET 1 -41 0
          CHANNELS 6 Xposition Yposition Zposition Zrotation Xrotation Yrotation
          JOINT LEFTBIGTOE
          {
            OFFSET 4 -6 -14
            CHANNELS 6 Xposition Yposition Zposition Zrotation Xrotation Yrotation
            End Site
            {
              OFFSET 0 0 0
            }
          }
          JOINT LEFTSMALLTOE
          {
            OFFSET -3 -6 -10
            CHANNELS 6 Xposition Yposition Zposition Zrotation Xrotation Yrotation
            End Site
            {
              OFFSET 0 0 0
            }
          }
          JOINT LEFTHEEL
          {
            OFFSET 0 -6 6
            CHANNELS 6 Xposition Yposition Zposition Zrotation Xrotation Yrotation
            End Site
            {
              OFFSET 0 0 0
            }
          }
        }
      }
    }
    JOINT RIGHTHIP
    {
      OFFSET 9 -6 0
      CHANNELS 6 Xposition Yposition Zposition Zrotation Xrotation Yrotation
      JOINT RIGHTKNEE
      {
        OFFSET 0 -45 0
        CHANNELS 6 Xposition Yposition Zposition Zrotation Xrotation Yrotation
        JOINT RIGHTANKLE
        {
          OFFSET -1 -41 0
          CHANNELS 6 Xposition Yposition Zposition Zrotation Xrotation Yrotation
          JOINT RIGHTBIGTOE
          {
            OFFSET -3 -6 -14
            CHANNELS 6 Xposition Yposition Zposition Zrotation Xrotation Yrotation
            End Site
            {
              OFFSET 0 0 0
            }
          }
          JOINT RIGHTSMALLTOE
          {
            OFFSET 4 -6 -10
            CHANNELS 6 Xposition Yposition Zposition Zrotation Xrotation Yrotation
            End Site
            {
              OFFSET 0 0 0
            }
          }
          JOINT RIGHTHEEL
          {
            OFFSET 0 -6 6
            CHANNELS 6 Xposition Yposition Zposition Zrotation Xrotation Yrotation
            End Site
            {
              OFFSET 0 0 0
            }
          }
        }
      }
    }
  }
}
MOTION
Frames:	5
Frame Time:	0.0333333
0 0 0 0 0 -0 40.9582 111.397 -166.559 1.09719 5.15173 168.685 0 7 0 -1.65194 4.81935 -8.11645 1.42109e-14 13 -2.84217e-14 -1.05412 2.50661 -5.34166 2.13163e-14 13 2.84217e-14 0.11227 0.395885 -0.81763 0 17 -2.84217e-14 -8.07582 24.2455 -6.71099 0 20 -8 -1.76556e-31 -3.18055e-15 -3.18055e-15 -3 6 4 -0 0 3.18055e-15 -4 -6 9 -0 0 3.18055e-15 3 6 4 -0 0 3.18055e-15 4 -6 9 -0 0 3.18055e-15 -7 12 5 -9.96747 0.116433 5.04767 -11 -2.84217e-14 -2.84217e-14 0.988464 58.5356 -89.536 -26 0 7.10543e-15 -1.61375e-14 -6.36111e-15 -55.2365 -26 0 -2.84217e-14 69.7716 60.6119 -28.9462 -11 -4 -6 7.95139e-16 0 -3.18055e-15 11 -4 -6 7.95139e-16 0 -3.18055e-15 11 0 -3 7.95139e-16 0 -3.18055e-15 19 0 -1 7.95139e-16 0 -3.18055e-15 7 12 5 1.97147 -7.82729 -4.41624 11 0 -2.84217e-14 -68.5344 2.30965 92.8845 26 1.42109e-14 -1.42109e-14 -2.50613e-14 -4.97294e-15 98.8122 26 0 0 -1.08681 9.09203 -6.0243 11 -4 -6 0 3.18055e-15 -0 -11 1.42109e-14 -3 0 3.18055e-15 -0 -19 1.42109e-14 -1 0 3.18055e-15 -0 -11 -1 4 0 3.18055e-15 -0 -9 -6 0 -9.29628 18.4537 24.4482 1.42109e-14 -45 0 1.34596e-15 -18.0982 -3.3461e-15 1 -41 0 0.969904 0.0351895 0.962686 4 -6 -14 7.95139e-16 0 -0 -3 -6 -10 7.95139e-16 0 -0 1.42109e-14 -6 6 7.95139e-16 0 -0 9 -6 2.84217e-14 15.597 7.80181 -29.4285 -1.42109e-14 -45 -2.84217e-14 -1.9588e-15 -17.285 -3.33099e-15 -1 -41 2.84217e-14 -2.44737 0.0574961 -4.99762 -3 -6 -14 1.59028e-15 1.59028e-15 -0 4 -6 -10 1.59028e-15 1.59028e-15 -0 1.42109e-14 -6 6 1.59028e-15 1.59028e-15 -0 
0 0 0 0 0 -0 41.0286 111.458 -166.747 1.07048 4.48104 167.54 0 7 -2.84217e-14 -1.55268 5.16799 -8.4706 7.10543e-15 13 0 -0.869388 2.76744 -5.61444 0 13 0 0.129363 0.366643 -0.872254 0 17 0 -9.46438 23.8876 -8.55459 0 20 -8 5.29669e-31 3.18055e-15 -9.54166e-15 -3 6 4 -0 -3.18055e-15 -0 -4 -6 9 -3.18055e-15 -6.36111e-15 1.59028e-14 3 6 4 -0 -3.18055e-15 -0 4 -6 9 -3.18055e-15 -6.36111e-15 1.59028e-14 -7 12 5 -9.96412 -0.264045 4.69709 -11 0 0 1.95061 56.7287 -93.1001 -26 0 0 1.72782e-14 1.59028e-14 -55.158 -26 -2.84217e-14 1.42109e-14 68.4563 61.1048 -27.8306 -11 -4 -6 -2.38542e-15 0 -3.18055e-15 11 -4 -6 -2.38542e-15 0 -3.18055e-15 11 0 -3 -2.38542e-15 0 -3.18055e-15 19 0 -1 -2.38542e-15 0 -3.18055e-15 7 12 5 2.08874 -7.23269 -4.72622 11 0 0 -70.1248 7.97344 95.9587 26 0 -1.42109e-14 -2.6331e-14 1.0094e-14 100.039 26 0 1.42109e-14 -1.23518 9.04349 -6.04101 11 -4 -6 7.95139e-16 3.18055e-15 -7.95139e-16 -11 1.42109e-14 -3 7.95139e-16 3.18055e-15 -7.95139e-16 -19 2.84217e-14 -1 7.95139e-16 3.18055e-15 -7.95139e-16 -11 -1 4 7.95139e-16 3.18055e-15 -7.95139e-16 -9 -6 -2.84217e-14 -9.30075 18.4942 24.4513 1.42109e-14 -45 1.42109e-14 5.46003e-16 -18.1766 -3.3476e-15 1 -41 0 0.969904 0.0351895 0.962686 4 -6 -14 2.48481e-16 -3.97569e-16 -0 -3 -6 -10 2.48481e-16 -3.97569e-16 -0 0 -6 6 2.48481e-16 -3.97569e-16 -0 9 -6 -2.84217e-14 14.9048 7.04559 -29.5312 1.42109e-14 -45 0 -9.53402e-16 -17.3038 9.99398e-15 -1 -41 0 -2.44488 0.046838 -4.99794 -3 -6 -14 -1.59028e-15 -1.59028e-15 -6.36111e-15 4 -6 -10 -1.59028e-15 -1.59028e-15 -6.36111e-15 2.84217e-14 -6 6 -1.59028e-15 -1.59028e-15 -6.36111e-15 
0 0 0 0 0 -0 40.7408 111.866 -167.992 1.1428 3.88029 165.818 0 7 -2.84217e-14 -1.46295 5.47475 -9.1298 -7.10543e-15 13 0 -0.684379 2.86131 -6.12574 -7.10543e-15 13 -2.84217e-14 0.145085 0.293747 -0.963206 -7.10543e-15 17 0 -10.8452 23.0347 -10.4119 -1.42109e-14 20 -8 6.36111e-15 0 -3.18055e-15 -3 6 4 -1.76556e-31 -3.18055e-15 -3.18055e-15 -4 -6 9 -3.18055e-15 -3.18055e-15 -3.18055e-15 3 6 4 -1.76556e-31 -3.18055e-15 -3.18055e-15 4 -6 9 -3.18055e-15 -3.18055e-15 -3.18055e-15 -7 12 5 -9.93823 -0.536947 4.30324 -11 0 0 3.87167 55.4137 -97.3302 -26 2.84217e-14 0 -2.86083e-15 0 -56.2286 -26 0 0 67.7014 61.3636 -27.2274 -11 -4 -6 -1.59028e-15 3.18055e-15 -3.18055e-15 11 -4 -6 -1.59028e-15 3.18055e-15 -3.18055e-15 11 -2.84217e-14 -3 -1.59028e-15 3.18055e-15 -3.18055e-15 19 -2.84217e-14 -1 -1.59028e-15 3.18055e-15 -3.18055e-15 7 12 5 2.25844 -6.71348 -5.05715 11 0 0 -70.9586 12.8742 98.2844 26 2.84217e-14 0 -1.13936e-13 -2.01137e-14 100.654 26 0 0 -1.38964 8.97605 -6.10731 11 -4 -6 -1.19271e-15 -6.36111e-15 1.59028e-15 -11 0 -3 -1.19271e-15 -6.36111e-15 1.59028e-15 -19 0 -1 -1.19271e-15 -6.36111e-15 1.59028e-15 -11 -1 4 -1.19271e-15 -6.36111e-15 1.59028e-15 -9 -6 -2.84217e-14 -9.30328 18.5232 24.4531 0 -45 0 6.6857e-16 -18.2416 -1.67443e-15 1 -41 0 0.969904 0.0351895 0.962686 4 -6 -14 -4.96962e-17 0 1.59028e-15 -3 -6 -10 -4.96962e-17 0 1.59028e-15 1.42109e-14 -6 6 -4.96962e-17 0 1.59028e-15 9 -6 0 14.2145 5.96572 -29.6797 0 -45 0 -1.93641e-16 -17.2696 -3.33071e-15 -1 -41 0 -2.44305 0.0396962 -4.99809 -3 -6 -14 -1.59028e-15 1.59028e-15 -0 4 -6 -10 -1.59028e-15 1.59028e-15 -0 1.42109e-14 -6 6 -1.59028e-15 1.59028e-15 -0 
0 0 0 0 0 -0 40.4224 111.978 -169.01 1.23455 3.37751 163.916 0 7 0 -1.368 5.48432 -9.76532 -7.10543e-15 13 -2.84217e-14 -0.463333 2.68959 -6.55649 1.42109e-14 13 0 0.182848 0.172893 -0.967334 -1.42109e-14 17 0 -12.3321 21.8269 -12.0871 1.42109e-14 20 -8 -3.18055e-15 -3.18055e-15 9.54166e-15 -3 6 4 3.18055e-15 -6.36111e-15 -3.18055e-15 -4 -6 9 3.18055e-15 3.18055e-15 3.18055e-15 3 6 4 3.18055e-15 -6.36111e-15 -3.18055e-15 4 -6 9 3.18055e-15 3.18055e-15 3.18055e-15 -7 12 5 -9.84831 -0.767789 3.9319 -11 0 -2.84217e-14 5.59519 54.2566 -100.911 -26 0 0 -2.77854e-14 -1.90833e-14 -58.2224 -26 0 0 67.3545 61.4674 -26.9887 -11 -4 -6 7.95139e-16 0 -0 11 -4 -6 7.95139e-16 0 -0 11 0 -3 7.95139e-16 0 -0 19 0 -1 7.95139e-16 0 -0 7 12 5 2.48274 -6.23473 -5.40768 11 2.84217e-14 0 -72.8164 17.9688 99.7217 26 0 -5.68434e-14 2.42359e-14 1.41424e-14 99.7689 26 -2.84217e-14 -7.10543e-15 -1.18795 8.84002 -6.62462 11 -4 -6 1.59028e-15 3.18055e-15 1.59028e-15 -11 0 -3 1.59028e-15 3.18055e-15 1.59028e-15 -19 0 -1 1.59028e-15 3.18055e-15 1.59028e-15 -11 -1 4 1.59028e-15 3.18055e-15 1.59028e-15 -9 -6 2.84217e-14 -9.30437 18.5427 24.454 -1.42109e-14 -45 0 3.84474e-16 -18.2933 5.02477e-15 1 -41 -2.84217e-14 0.969904 0.0351895 0.962686 4 -6 -14 2.23633e-16 0 -0 -3 -6 -10 2.23633e-16 0 -0 0 -6 6 2.23633e-16 0 -0 9 -6 2.84217e-14 13.7205 4.90899 -29.8039 0 -45 0 4.53646e-15 -17.0615 6.65395e-15 -1 -41 0 -2.44176 0.0353295 -4.99814 -3 -6 -14 1.59028e-15 1.59028e-15 3.18055e-15 4 -6 -10 1.59028e-15 1.59028e-15 3.18055e-15 0 -6 6 1.59028e-15 1.59028e-15 3.18055e-15 
0 0 0 0 0 -0 40.1302 111.857 -169.444 1.3459 2.88048 161.989 0 7 0 -1.08955 5.31932 -10.1464 -7.10543e-15 13 -2.84217e-14 -0.0989335 2.49509 -6.72693 7.10543e-15 13 2.84217e-14 0.278769 0.121394 -0.898893 0 17 2.84217e-14 -13.3155 20.9003 -13.1465 -2.84217e-14 20 -8 0 3.18055e-15 -0 -3 6 4 3.18055e-15 -6.36111e-15 -0 -4 -6 9 3.18055e-15 -3.18055e-15 -0 3 6 4 3.18055e-15 -6.36111e-15 -0 4 -6 9 3.18055e-15 -3.18055e-15 -0 -7 12 5 -9.7759 -1.02154 3.62582 -11 5.68434e-14 0 6.35411 52.9712 -102.895 -26 2.84217e-14 1.42109e-14 -1.19652e-14 -3.18055e-15 -60.2282 -26 0 0 67.2871 61.4707 -26.9938 -11 -4 -6 -2.98177e-15 3.18055e-15 3.18055e-15 11 -4 -6 -2.98177e-15 3.18055e-15 3.18055e-15 11 0 -3 -2.98177e-15 3.18055e-15 3.18055e-15 19 0 -1 -2.98177e-15 3.18055e-15 3.18055e-15 7 12 5 2.70043 -5.70328 -5.73496 11 0 -2.84217e-14 -76.9449 22.9076 102.63 26 0 0 -5.03129e-14 -9.78185e-15 96.7397 26 0 -7.10543e-15 -0.0472834 8.50547 -8.40615 11 -4 -6 3.97569e-15 6.36111e-15 7.95139e-16 -11 0 -3 3.97569e-15 6.36111e-15 7.95139e-16 -19 0 -1 3.97569e-15 6.36111e-15 7.95139e-16 -11 -1 4 3.97569e-15 6.36111e-15 7.95139e-16 -9 -6 0 -9.30443 18.5545 24.4541 0 -45 -2.84217e-14 1.12803e-15 -18.3325 -8.37652e-16 1 -41 0 0.969904 0.0351895 0.962686 4 -6 -14 -7.45443e-17 0 -0 -3 -6 -10 -7.45443e-17 0 -0 0 -6 6 -7.45443e-17 0 -0 9 -6 -2.84217e-14 13.3241 3.92396 -29.8732 -1.42109e-14 -45 0 -2.07838e-15 -16.6081 6.63803e-15 -1 -41 0 -2.44093 0.0331186 -4.99811 -3 -6 -14 1.59028e-15 0 -9.54166e-15 4 -6 -10 1.59028e-15 0 -9.54166e-15 2.84217e-14 -6 6 1.59028e-15 0 -9.54166e-15 
